Coordinates
version=1
nRows=9
nColumns=63
inDegrees=yes

Units are S.I. units (second, meters, Newtons, ...)
If the header above contains a line with 'inDegrees', this indicates whether rotational values are in degrees (yes) or radians (no).

endheader
time	pelvis_tilt	pelvis_list	pelvis_rotation	pelvis_tx	pelvis_ty	pelvis_tz	hip_flexion_r	hip_adduction_r	hip_rotation_r	knee_angle_r	knee_angle_r_beta	ankle_angle_r	subtalar_angle_r	mtp_angle_r	hip_flexion_l	hip_adduction_l	hip_rotation_l	knee_angle_l	knee_angle_l_beta	ankle_angle_l	subtalar_angle_l	mtp_angle_l	L5_S1_Flex_Ext	L5_S1_Lat_Bending	L5_S1_axial_rotation	L4_L5_Flex_Ext	L4_L5_Lat_Bending	L4_L5_axial_rotation	L3_L4_Flex_Ext	L3_L4_Lat_Bending	L3_L4_axial_rotation	L2_L3_Flex_Ext	L2_L3_Lat_Bending	L2_L3_axial_rotation	L1_L2_Flex_Ext	L1_L2_Lat_Bending	L1_L2_axial_rotation	L1_T12_Flex_Ext	L1_T12_Lat_Bending	L1_T12_axial_rotation	Abs_r3	Abs_r2	Abs_r1	Abs_t1	Abs_t2	neck_flexion	neck_bending	neck_rotation	arm_flex_r	arm_add_r	arm_rot_r	elbow_flex_r	pro_sup_r	wrist_flex_r	wrist_dev_r	arm_flex_l	arm_add_l	arm_rot_l	elbow_flex_l	pro_sup_l	wrist_flex_l	wrist_dev_l
0.000000	-1.403165	-5.480816	76.913374	0.114913	0.964633	0.321885	0.964023	1.404709	-11.593645	0.161142	0.002812	13.681469	16.600482	0.000000	1.676964	0.457105	-3.266604	1.805935	0.031520	5.771559	-15.088147	0.000000	-0.044678	0.391017	1.235900	-0.082972	0.520052	1.313144	-0.073402	0.950718	1.313144	-0.051063	0.950718	1.081413	-0.041488	0.797361	1.004169	-0.025529	0.605685	0.926925	-0.319131	4.423259	6.873706	0.000000	0.000000	16.824048	-1.150469	5.728758	7.445790	-16.015790	60.943471	23.738216	58.101873	-6.445865	-9.752220	8.576049	-15.985506	71.362985	24.236267	80.095352	-24.177224	-10.241160
0.016667	-1.619238	-5.238535	76.825505	0.114908	0.965262	0.321959	0.795079	1.097230	-11.260873	0.182215	0.003180	13.725218	16.393807	0.000000	1.545366	0.692323	-3.488443	1.763456	0.030778	5.736083	-15.224179	0.000000	-0.066767	0.365773	1.349325	-0.123992	0.486478	1.433657	-0.109691	0.889339	1.433657	-0.076308	0.889339	1.180659	-0.062000	0.745883	1.096326	-0.038151	0.566582	1.011993	-0.476908	4.137692	7.504538	0.000000	0.000000	16.509692	-1.304812	5.290653	7.100828	-15.933465	58.995301	23.885398	58.548843	-6.084554	-8.572644	9.146527	-16.157745	71.820201	24.858025	80.979755	-23.704213	-8.674348
0.033333	-1.804240	-5.035513	76.751410	0.114872	0.965730	0.321989	0.650339	0.830029	-10.984222	0.198348	0.003462	13.761450	16.235018	0.000000	1.430810	0.898757	-3.665778	1.721295	0.030042	5.706914	-15.357787	0.000000	-0.085151	0.344518	1.440899	-0.158134	0.458209	1.530955	-0.139895	0.837662	1.530955	-0.097319	0.837662	1.260787	-0.079071	0.702542	1.170730	-0.048655	0.533659	1.080674	-0.608225	3.897260	8.013848	0.000000	0.000000	16.261286	-1.429355	4.941231	6.833179	-15.868005	57.552830	23.935423	59.107283	-5.893057	-7.596008	9.586765	-16.289117	72.199913	25.321905	81.684406	-23.426496	-7.534007
0.050000	-1.959198	-4.868872	76.689879	0.114807	0.966053	0.321983	0.528184	0.601745	-10.759505	0.210022	0.003666	13.790661	16.120018	0.000000	1.332176	1.076968	-3.803995	1.680140	0.029324	5.684483	-15.487453	0.000000	-0.100142	0.327112	1.512658	-0.185974	0.435059	1.607199	-0.164523	0.795341	1.607199	-0.114452	0.795341	1.323576	-0.092992	0.667047	1.229035	-0.057221	0.506697	1.134494	-0.715304	3.700359	8.412951	0.000000	0.000000	16.072960	-1.527308	4.672676	6.635877	-15.818741	56.575243	23.898227	59.750418	-5.854454	-6.810609	9.910445	-16.382578	72.517003	25.641725	82.220732	-23.315754	-6.771345
0.066667	-2.085138	-4.735737	76.639703	0.114717	0.966248	0.321945	0.426995	0.411018	-10.582537	0.217719	0.003800	13.813342	16.044713	0.000000	1.248344	1.227517	-3.908479	1.640677	0.028635	5.669221	-15.611661	0.000000	-0.112051	0.313413	1.566637	-0.208090	0.416839	1.664551	-0.184088	0.762031	1.664551	-0.128063	0.762031	1.370807	-0.104050	0.639111	1.272892	-0.064026	0.485476	1.174978	-0.800368	3.545386	8.713163	0.000000	0.000000	15.938844	-1.601880	4.477170	6.501959	-15.785003	56.021727	23.783745	60.451472	-5.951822	-6.204741	10.131248	-16.441081	72.786354	25.831302	82.600160	-23.343667	-6.337570
0.083333	-2.183086	-4.633231	76.599673	0.114605	0.966328	0.321883	0.345150	0.256490	-10.449131	0.221920	0.003873	13.829988	16.005006	0.000000	1.178193	1.350962	-3.984616	1.603593	0.027988	5.661558	-15.728892	0.000000	-0.121189	0.303278	1.604869	-0.225060	0.403360	1.705173	-0.199101	0.737390	1.705173	-0.138507	0.737390	1.404260	-0.112536	0.618444	1.303956	-0.069247	0.469777	1.203652	-0.865639	3.430740	8.925799	0.000000	0.000000	15.853069	-1.656279	4.346899	6.424460	-15.766121	55.851466	23.601912	61.183671	-6.168241	-5.766702	10.262856	-16.467581	73.022849	25.904455	82.834118	-23.481917	-6.183891
0.100000	-2.254067	-4.558476	76.568581	0.114476	0.966311	0.321804	0.281032	0.136799	-10.355101	0.223107	0.003894	13.841090	15.996804	0.000000	1.120603	1.447865	-4.037790	1.569577	0.027394	5.661926	-15.837630	0.000000	-0.127867	0.296566	1.629389	-0.237462	0.394433	1.731226	-0.210073	0.721071	1.731226	-0.146139	0.721071	1.425716	-0.118737	0.604758	1.323879	-0.073063	0.459381	1.222042	-0.913342	3.354816	9.062174	0.000000	0.000000	15.809766	-1.693715	4.274045	6.396416	-15.761426	56.023646	23.362663	61.920240	-6.486788	-5.484788	10.318951	-16.465033	73.241368	25.875000	82.934033	-23.702183	-6.261516
0.116667	-2.299108	-4.508596	76.545217	0.114334	0.966212	0.321714	0.233019	0.050586	-10.296261	0.221760	0.003870	13.847144	16.016010	0.000000	1.074455	1.518784	-4.073387	1.539313	0.026866	5.670753	-15.936357	0.000000	-0.132397	0.293136	1.642232	-0.245874	0.389871	1.744872	-0.217515	0.712731	1.744872	-0.151316	0.712731	1.436953	-0.122944	0.597763	1.334314	-0.075652	0.454068	1.231674	-0.945697	3.316013	9.133603	0.000000	0.000000	15.803065	-1.717395	4.250792	6.410863	-15.770248	56.497454	23.075932	62.634405	-6.890543	-5.347294	10.313213	-16.436389	73.456796	25.756757	82.911334	-23.976146	-6.521654
0.133333	-2.319233	-4.480715	76.528373	0.114180	0.966046	0.321619	0.199493	-0.003509	-10.268425	0.218363	0.003811	13.848640	16.058529	0.000000	1.038628	1.564279	-4.096792	1.513491	0.026415	5.688472	-16.023555	0.000000	-0.135089	0.292846	1.645432	-0.250874	0.389485	1.748272	-0.221938	0.712025	1.748272	-0.154393	0.712025	1.439753	-0.125444	0.597171	1.336914	-0.077190	0.453618	1.234074	-0.964929	3.312727	9.151401	0.000000	0.000000	15.827095	-1.730530	4.269325	6.460835	-15.791918	57.232075	22.751656	63.299390	-7.362584	-5.342517	10.259324	-16.384605	73.684014	25.563543	82.777447	-24.275486	-6.915513
